<svg width="22" height="19" viewBox="0 0 22 19" fill="none" xmlns="http://www.w3.org/2000/svg">
<path d="M12.2982 1.14844L20.9322 16.1024C21.0638 16.3305 21.1332 16.5891 21.1332 16.8524C21.1332 17.1157 21.0639 17.3744 20.9322 17.6024C20.8006 17.8304 20.6112 18.0198 20.3832 18.1515C20.1552 18.2831 19.8965 18.3524 19.6332 18.3524H2.3652C2.10189 18.3524 1.84323 18.2831 1.61521 18.1515C1.38719 18.0198 1.19783 17.8304 1.06619 17.6024C0.934539 17.3744 0.865233 17.1157 0.865234 16.8524C0.865236 16.5891 0.934545 16.3305 1.0662 16.1024L9.7002 1.14844C10.2772 0.148438 11.7202 0.148438 12.2982 1.14844ZM10.9992 13.0004C10.734 13.0004 10.4796 13.1058 10.2921 13.2933C10.1046 13.4809 9.9992 13.7352 9.9992 14.0004C9.9992 14.2657 10.1046 14.52 10.2921 14.7075C10.4796 14.8951 10.734 15.0004 10.9992 15.0004C11.2644 15.0004 11.5188 14.8951 11.7063 14.7075C11.8938 14.52 11.9992 14.2657 11.9992 14.0004C11.9992 13.7352 11.8938 13.4809 11.7063 13.2933C11.5188 13.1058 11.2644 13.0004 10.9992 13.0004ZM10.9992 6.00044C10.7543 6.00047 10.5179 6.09039 10.3348 6.25315C10.1518 6.41591 10.0349 6.64019 10.0062 6.88344L9.9992 7.00044V11.0004C9.99948 11.2553 10.0971 11.5005 10.272 11.6858C10.447 11.8711 10.6861 11.9827 10.9406 11.9976C11.195 12.0125 11.4456 11.9298 11.641 11.7662C11.8365 11.6026 11.9621 11.3705 11.9922 11.1174L11.9992 11.0004V7.00044C11.9992 6.73522 11.8938 6.48087 11.7063 6.29333C11.5188 6.10579 11.2644 6.00044 10.9992 6.00044Z" fill="#FF0000"/>
</svg>
