<svg width="16" height="16" viewBox="0 0 16 16" fill="none" xmlns="http://www.w3.org/2000/svg">
<path d="M0.999587 8.58138L12.1696 8.58138L7.28959 13.4614C6.89959 13.8514 6.89959 14.4914 7.28959 14.8814C7.3821 14.9741 7.49199 15.0476 7.61296 15.0978C7.73394 15.148 7.86362 15.1738 7.99459 15.1738C8.12556 15.1738 8.25524 15.148 8.37621 15.0978C8.49718 15.0476 8.60707 14.9741 8.69959 14.8814L15.2896 8.29138C15.3823 8.19887 15.4558 8.08898 15.506 7.96801C15.5562 7.84704 15.582 7.71735 15.582 7.58638C15.582 7.45542 15.5562 7.32573 15.506 7.20476C15.4558 7.08379 15.3823 6.9739 15.2896 6.88138L8.69959 0.291384C8.607 0.198802 8.49709 0.125363 8.37613 0.0752583C8.25517 0.0251533 8.12552 -0.000635146 7.99459 -0.000635147C7.86366 -0.000635148 7.73401 0.0251533 7.61304 0.0752583C7.49208 0.125363 7.38217 0.198802 7.28959 0.291384C7.19701 0.383966 7.12357 0.493877 7.07346 0.614841C7.02336 0.735806 6.99757 0.865455 6.99757 0.996386C6.99757 1.12732 7.02336 1.25696 7.07346 1.37793C7.12357 1.49889 7.19701 1.6088 7.28959 1.70139L12.1696 6.58138L0.999587 6.58138C0.449587 6.58138 -0.000412941 7.03138 -0.000412941 7.58138C-0.000412941 8.13138 0.449587 8.58138 0.999587 8.58138Z" fill="black"/>
</svg>
