<svg width="20" height="22" viewBox="0 0 20 22" fill="none" xmlns="http://www.w3.org/2000/svg">
<path fill-rule="evenodd" clip-rule="evenodd" d="M3.49921 8C3.49921 7.40905 3.61561 6.82389 3.84175 6.27792C4.0679 5.73196 4.39936 5.23588 4.81723 4.81802C5.23509 4.40016 5.73117 4.06869 6.27713 3.84254C6.8231 3.6164 7.40826 3.5 7.99921 3.5C8.59016 3.5 9.17532 3.6164 9.72128 3.84254C10.2673 4.06869 10.7633 4.40016 11.1812 4.81802C11.5991 5.23588 11.9305 5.73196 12.1567 6.27792C12.3828 6.82389 12.4992 7.40905 12.4992 8C12.4992 9.19347 12.0251 10.3381 11.1812 11.182C10.3373 12.0259 9.19268 12.5 7.99921 12.5C6.80573 12.5 5.66114 12.0259 4.81723 11.182C3.97331 10.3381 3.49921 9.19347 3.49921 8ZM7.99921 0.5C6.82971 0.500123 5.67644 0.773742 4.63153 1.299C3.58662 1.82426 2.67902 2.5866 1.98124 3.52512C1.28346 4.46365 0.814824 5.55236 0.612776 6.70427C0.410728 7.85619 0.480865 9.03939 0.817584 10.1594C1.1543 11.2794 1.74827 12.3051 2.55204 13.1546C3.35582 14.0041 4.34712 14.6539 5.44677 15.052C6.54641 15.4502 7.72393 15.5856 8.88525 15.4476C10.0466 15.3095 11.1595 14.9018 12.1352 14.257L16.9382 19.061C17.2196 19.3424 17.6013 19.5005 17.9992 19.5005C18.3972 19.5005 18.7788 19.3424 19.0602 19.061C19.3416 18.7796 19.4997 18.398 19.4997 18C19.4997 17.602 19.3416 17.2204 19.0602 16.939L14.2562 12.136C15.0035 11.0056 15.4305 9.69387 15.492 8.34019C15.5535 6.98652 15.247 5.64148 14.6053 4.44801C13.9635 3.25454 13.0104 2.25724 11.8472 1.56209C10.6841 0.866937 9.35428 0.499906 7.99921 0.5Z" fill="black"/>
</svg>
